<?xml version="1.0" standalone="no"?>
<!DOCTYPE svg PUBLIC "-//W3C//DTD SVG 20010904//EN"
 "http://www.w3.org/TR/2001/REC-SVG-20010904/DTD/svg10.dtd">
<svg version="1.0" xmlns="http://www.w3.org/2000/svg"
 width="417.000000pt" height="139.000000pt" viewBox="0 0 417.000000 139.000000"
 preserveAspectRatio="xMidYMid meet">

<g transform="translate(0.000000,139.000000) scale(0.100000,-0.100000)"
fill="#000000" stroke="none">
<path d="M1561 1323 c-30 -8 -64 -21 -75 -30 -20 -15 -20 -15 13 -9 18 3 49 6
68 6 30 0 33 2 24 14 -10 12 -4 12 46 0 143 -35 184 -47 188 -55 3 -4 -27 1
-66 12 -39 11 -76 18 -81 17 -21 -7 110 -76 185 -98 42 -13 77 -27 77 -31 0
-13 -10 -11 -73 10 -32 11 -57 17 -57 13 0 -4 13 -21 28 -39 18 -22 53 -42
110 -63 45 -17 82 -36 82 -41 0 -14 -13 -11 -75 16 -32 14 -59 24 -62 22 -2
-3 4 -22 14 -42 15 -33 30 -44 101 -76 45 -21 82 -43 82 -49 0 -16 -16 -12
-81 21 -34 17 -63 28 -65 26 -2 -2 2 -21 9 -43 12 -33 25 -45 90 -83 101 -56
106 -87 7 -35 -39 20 -72 35 -74 33 -1 -2 -1 -23 2 -46 4 -40 8 -44 73 -83 72
-42 84 -54 74 -70 -3 -5 -33 8 -67 30 -34 21 -65 37 -70 34 -4 -3 -8 -25 -8
-48 0 -42 2 -45 60 -82 35 -23 60 -46 60 -56 0 -24 -2 -23 -65 19 -31 20 -57
34 -60 31 -3 -2 -8 -25 -11 -50 -6 -45 -6 -45 45 -82 28 -21 51 -42 51 -46 0
-22 -24 -18 -64 10 -24 18 -48 30 -53 27 -5 -3 -15 -24 -22 -45 -13 -39 -13
-40 25 -75 30 -27 36 -39 27 -48 -9 -9 -19 -5 -46 15 -18 14 -37 26 -40 26 -4
0 -19 -18 -33 -40 l-27 -41 29 -30 c23 -24 26 -32 14 -39 -9 -6 -23 -2 -41 11
-34 24 -33 24 -75 -8 -39 -32 -42 -43 -16 -66 30 -27 54 -20 123 36 183 145
276 321 286 537 6 137 -12 226 -73 349 -54 109 -158 227 -261 293 -76 49 -83
61 -11 20 267 -155 414 -445 368 -729 -30 -188 -132 -359 -282 -470 -27 -19
-48 -38 -48 -43 0 -10 99 12 188 41 57 19 129 65 118 76 -2 2 -43 -8 -91 -22
-48 -15 -89 -24 -92 -21 -7 6 -11 5 117 46 52 17 104 37 115 44 19 13 62 76
51 76 -2 0 -46 -16 -97 -35 -50 -20 -94 -34 -96 -32 -8 8 25 25 120 63 99 38
127 62 127 109 0 20 3 20 -86 -20 -86 -39 -84 -39 -84 -25 0 6 44 32 97 58 93
45 98 49 105 86 5 21 6 41 3 44 -2 3 -36 -12 -75 -33 -40 -20 -74 -34 -78 -31
-9 10 14 28 91 71 l72 41 3 47 c2 26 1 47 -2 47 -3 0 -31 -16 -63 -35 -32 -19
-64 -35 -71 -35 -28 0 -3 26 67 68 l72 44 -6 42 c-4 22 -9 44 -12 48 -2 5 -31
-10 -63 -32 -67 -46 -70 -46 -70 -22 0 10 25 33 60 56 45 29 60 44 60 61 0 30
-17 75 -28 75 -5 0 -30 -16 -55 -35 -50 -38 -67 -43 -67 -20 0 8 25 33 55 56
30 23 55 43 55 46 0 16 -43 83 -53 83 -6 -1 -32 -18 -56 -40 -25 -21 -48 -37
-53 -34 -18 11 -6 35 37 71 25 20 45 42 45 48 0 6 -15 26 -34 44 l-34 33 -46
-42 c-43 -40 -66 -45 -66 -15 0 8 16 27 35 42 19 15 35 33 35 40 0 15 -62 53
-86 53 -10 0 -30 -12 -45 -26 -27 -26 -49 -26 -49 0 0 8 7 19 15 26 40 33 9
42 -165 45 -100 1 -162 -2 -199 -12z"/>
<path d="M1485 1211 c-43 -19 -105 -67 -105 -81 0 -5 21 3 48 18 233 131 472
-214 408 -588 -48 -280 -232 -436 -409 -346 -55 27 -62 18 -14 -18 126 -96
260 -85 368 31 60 64 91 120 125 223 24 76 27 100 28 225 0 104 -5 157 -18
205 -42 156 -130 282 -228 328 -60 28 -146 29 -203 3z"/>
<path d="M2370 915 l0 -45 75 0 75 0 2 -192 3 -193 48 -3 c77 -5 77 -5 77 204
l0 184 85 0 c81 0 85 1 91 24 3 14 4 33 2 43 -3 17 -19 18 -231 21 l-227 2 0
-45z"/>
<path d="M2886 945 c-12 -32 -7 -440 6 -453 13 -13 86 -16 106 -4 9 7 12 61
10 238 l-3 229 -56 3 c-45 2 -58 0 -63 -13z"/>
<path d="M3114 947 c-2 -7 -3 -114 -2 -237 l3 -225 50 -3 c65 -4 75 10 75 106
l0 74 55 -4 c61 -5 90 -25 127 -88 45 -75 66 -90 130 -90 37 0 58 4 58 12 0
19 -89 156 -116 177 l-25 19 35 12 c19 6 46 23 60 37 54 54 24 166 -54 205
-29 15 -63 18 -213 18 -135 0 -179 -3 -183 -13z m330 -96 c9 -7 16 -26 16 -41
0 -43 -23 -54 -126 -58 l-94 -4 0 62 0 62 94 -4 c58 -2 100 -9 110 -17z"/>
<path d="M3674 947 c-2 -7 -3 -114 -2 -237 l3 -225 209 -3 c221 -3 236 0 236
44 0 48 -19 54 -181 54 l-149 0 0 45 0 45 129 0 c140 0 161 7 161 54 0 41 -17
46 -157 46 l-133 0 0 50 0 50 159 0 c153 0 160 1 166 21 4 11 4 31 1 45 l-6
24 -216 0 c-164 0 -216 -3 -220 -13z"/>
<path d="M142 942 c-9 -7 -12 -60 -10 -233 l3 -224 205 0 205 0 9 27 c18 52 1
58 -165 58 l-149 0 0 50 0 50 128 0 c134 0 152 5 152 45 0 40 -18 45 -152 45
l-128 0 0 50 0 50 154 0 c131 0 155 2 160 16 11 29 6 53 -13 64 -23 12 -380
14 -399 2z"/>
<path d="M642 942 c-9 -6 -12 -60 -10 -233 l3 -224 29 -3 c15 -2 39 -1 52 2
23 6 24 10 24 86 l0 80 56 0 c30 0 64 -5 75 -11 11 -6 40 -41 64 -79 49 -75
57 -80 121 -80 33 0 44 4 44 16 0 22 -85 151 -110 166 -27 17 -25 24 6 32 44
11 72 36 84 72 22 66 -7 126 -80 165 -29 15 -337 25 -358 11z m298 -95 c19
-10 25 -20 25 -47 0 -47 -28 -60 -137 -60 l-88 0 0 60 0 60 88 0 c50 0 98 -6
112 -13z"/>
<path d="M1296 939 c-96 -23 -145 -86 -154 -196 -9 -115 26 -195 101 -236 37
-19 58 -22 162 -22 113 0 123 2 166 27 49 29 73 69 67 110 -2 19 -10 24 -41
26 -34 3 -43 -1 -76 -37 l-38 -41 -81 0 c-70 0 -84 3 -108 23 -50 44 -51 200
0 243 23 21 38 24 106 24 l78 0 35 -42 c30 -35 41 -42 72 -42 44 0 55 15 45
60 -10 44 -24 61 -74 87 -47 24 -193 33 -260 16z"/>
<path d="M1620 67 l-35 -10 48 -10 c53 -10 66 -5 47 18 -14 17 -13 17 -60 2z"/>
</g>
</svg>
